<svg width="80" height="77" viewBox="0 0 80 77" fill="none" xmlns="http://www.w3.org/2000/svg">
<path d="M27.6 26.8311L12.8 41.5608L4.4 33.2879L0 37.7271L12.8 50.6408L32 31.2702L27.6 26.8311Z" fill="#3F51B5"/>
<path d="M27.6 0.599976L12.8 15.3298L4.4 7.05686L0 11.496L12.8 24.4097L32 5.03909L27.6 0.599976Z" fill="#3F51B5"/>
<path d="M27.6 53.0621L12.8 67.7919L4.4 59.519L0 63.9581L12.8 76.8719L32 57.5012L27.6 53.0621Z" fill="#3F51B5"/>
<path d="M40 34.7004H80V42.7716H40V34.7004Z" fill="#90CAF9"/>
<path d="M40 8.46936H80V16.5405H40V8.46936Z" fill="#90CAF9"/>
<path d="M40 60.9314H80V69.0025H40V60.9314Z" fill="#90CAF9"/>
</svg>
